<svg width="40.000000" height="40.000000" viewBox="0 0 40 40" fill="none" xmlns="http://www.w3.org/2000/svg" xmlns:xlink="http://www.w3.org/1999/xlink">
	<desc>
			Created with Pixso.
	</desc>
	<defs/>
	<path id="Ellipse 1 (Stroke)" d="M19.52 34C27.07 34 33.19 27.73 33.19 20C33.19 12.26 27.07 6 19.52 6C11.97 6 5.85 12.26 5.85 20C5.85 27.73 11.97 34 19.52 34ZM19.52 40C30.31 40 39.05 31.04 39.05 20C39.05 8.95 30.31 0 19.52 0C8.74 0 0 8.95 0 20C0 31.04 8.74 40 19.52 40Z" fill="#F7752A" fill-opacity="1.000000" fill-rule="evenodd"/>
	<path id="Rectangle 1" d="M19.52 10.8L24.77 16.18C27.67 19.16 27.67 23.99 24.77 26.96C21.87 29.94 17.17 29.94 14.28 26.96C11.38 23.99 11.38 19.16 14.28 16.18L19.52 10.8Z" fill="#FC2F1E" fill-opacity="1.000000" fill-rule="evenodd"/>
	<path id="Rectangle 5" d="M19.52 15.59L23.07 19.23C25.02 21.24 25.02 24.49 23.07 26.5C21.11 28.51 17.94 28.51 15.98 26.5C14.03 24.49 14.03 21.24 15.98 19.23L19.52 15.59Z" fill="#F7752A" fill-opacity="1.000000" fill-rule="evenodd"/>
	<path id="Rectangle 4" d="M19.52 19.6L21.53 21.65C22.63 22.79 22.63 24.63 21.53 25.77C20.42 26.91 18.63 26.91 17.52 25.77C16.41 24.63 16.41 22.79 17.52 21.65L19.52 19.6Z" fill="#FCAB1E" fill-opacity="1.000000" fill-rule="evenodd"/>
</svg>
